<svg xmlns="http://www.w3.org/2000/svg" style="display: none;">
  <symbol id="icon-facebook" viewBox="0 0 28 28">
    <path d="M17.0799 4.06011C17.2899 4.06011 17.4999 4.06011 17.9199 4.06011V7.21011C17.7099 7.21011 17.2899 7.21011 16.8699 7.21011C16.4499 7.21011 16.0299 7.21011 15.8199 7.42011C15.6099 7.63011 15.6099 7.84011 15.6099 8.33011C15.6099 8.75011 15.6099 9.03011 15.6099 9.45011H17.9199V12.1101H15.6099V23.6601H12.0399V12.0401H10.1499V9.38011H12.0399V8.47011C12.0399 6.93011 12.2499 5.81011 12.6699 5.32011C13.2999 4.41011 14.5599 3.99011 16.4499 3.99011C16.6599 4.06011 16.8699 4.06011 17.0799 4.06011Z" fill="currentColor"/>
  </symbol>
  <symbol id="icon-instagram" viewBox="0 0 28 28">
    <path d="M25.1277 9.41152C25.114 8.47146 24.9398 7.53885 24.6065 6.65964C24.0231 5.15827 22.8352 3.97109 21.3313 3.38991C20.4618 3.06332 19.5426 2.88822 18.6122 2.86835C17.4155 2.81495 17.0361 2.80005 13.9986 2.80005C10.961 2.80005 10.5716 2.80005 9.38372 2.86835C8.45454 2.88822 7.5353 3.06332 6.66582 3.38991C5.16196 3.97109 3.97279 5.15827 3.39065 6.65964C3.06351 7.52767 2.88688 8.44538 2.86946 9.37302C2.81598 10.5689 2.7998 10.9477 2.7998 13.9802C2.7998 17.0127 2.7998 17.4002 2.86946 18.5873C2.88812 19.5162 3.06351 20.4327 3.39065 21.3032C3.97404 22.8033 5.16195 23.9905 6.66706 24.5717C7.53281 24.9095 8.45205 25.1007 9.38497 25.1305C10.5828 25.1839 10.9622 25.2001 13.9998 25.2001C17.0374 25.2001 17.4267 25.2001 18.6146 25.1305C19.5438 25.1119 20.4631 24.9368 21.3338 24.6102C22.8377 24.0278 24.0256 22.8406 24.609 21.3405C24.9361 20.4712 25.1115 19.5547 25.1301 18.6246C25.1836 17.43 25.1998 17.0512 25.1998 14.0174C25.1973 10.9849 25.1973 10.5999 25.1277 9.41152ZM13.9911 19.7149C10.8142 19.7149 8.24059 17.1456 8.24059 13.974C8.24059 10.8024 10.8142 8.23302 13.9911 8.23302C17.1655 8.23302 19.7416 10.8024 19.7416 13.974C19.7416 17.1456 17.1655 19.7149 13.9911 19.7149ZM19.9705 9.35936C19.2279 9.35936 18.6296 8.7608 18.6296 8.02067C18.6296 7.28055 19.2279 6.68199 19.9705 6.68199C20.7106 6.68199 21.3102 7.28055 21.3102 8.02067C21.3102 8.7608 20.7106 9.35936 19.9705 9.35936Z" fill="currentColor"/>
    <path d="M13.9932 17.4789C15.9282 17.4789 17.4967 15.9104 17.4967 13.9754C17.4967 12.0405 15.9282 10.4719 13.9932 10.4719C12.0583 10.4719 10.4897 12.0405 10.4897 13.9754C10.4897 15.9104 12.0583 17.4789 13.9932 17.4789Z" fill="currentColor"/>
  </symbol>
  <symbol id="icon-youtube" viewBox="0 0 28 28">
    <path fill-rule="evenodd" clip-rule="evenodd" d="M21.2099 5.24986C20.0199 5.17986 17.5699 5.10986 13.8599 5.10986H13.3699C9.79985 5.10986 7.41989 5.17986 6.22989 5.31986C4.61989 5.45986 3.49985 5.87986 2.86985 6.43986C2.30985 6.92986 1.88987 7.83986 1.74987 9.02986C1.67987 9.79986 1.60986 11.4099 1.60986 13.8599V14.2099C1.60986 16.5199 1.67985 18.1299 1.81985 18.8999C2.02985 20.0199 2.37989 20.8599 3.07989 21.3499C3.77989 21.9099 4.96987 22.2599 6.64987 22.3999C7.83987 22.4699 10.2899 22.5399 13.9999 22.5399H14.4899C18.0599 22.5399 20.4399 22.4699 21.6299 22.3299C23.2399 22.1899 24.3599 21.7699 24.9899 21.2099C25.5499 20.7199 25.9699 19.8099 26.1099 18.6199C26.1799 17.8499 26.2499 16.2399 26.2499 13.7899V13.4399C26.2499 11.1299 26.1799 9.51986 26.0399 8.74986C25.8299 7.62986 25.4799 6.78986 24.7799 6.29986C24.0799 5.73986 22.8899 5.38986 21.2099 5.24986ZM18.4799 13.8599L10.7799 18.4799V9.23986L18.4799 13.8599Z" fill="currentColor"/>
  </symbol>
  <symbol id="icon-burger" viewBox="0 0 32 32">
      <path d="M28 13.3334H4" stroke="#242424" stroke-width="2" stroke-linecap="round" stroke-linejoin="round"/>
      <path d="M28 8H4" stroke="#242424" stroke-width="2" stroke-linecap="round" stroke-linejoin="round"/>
      <path d="M28 18.6666H4" stroke="#242424" stroke-width="2" stroke-linecap="round" stroke-linejoin="round"/>
      <path d="M28 24H4" stroke="#242424" stroke-width="2" stroke-linecap="round" stroke-linejoin="round"/>
  </symbol>
  <symbol id="icon-close" viewBox="0 0 24 24">
    <path d="M19 6.41L17.59 5 12 10.59 6.41 5 5 6.41 10.59 12 5 17.59 6.41 19 12 13.41 17.59 19 19 17.59 13.41 12z"/>
  </symbol>
</svg>